<mxfile host="Electron" modified="2024-06-26T11:51:22.795Z" agent="Mozilla/5.0 (X11; Linux x86_64) AppleWebKit/537.36 (KHTML, like Gecko) draw.io/24.4.0 Chrome/120.0.6099.109 Electron/28.1.0 Safari/537.36" etag="NgYOWtZ26Pk14lXIkigq" version="24.4.0" type="device">
  <diagram name="Seite-1" id="QJVqFNh1a5Zv3vQaC6qA">
    <mxGraphModel dx="607" dy="883" grid="1" gridSize="10" guides="1" tooltips="1" connect="1" arrows="1" fold="1" page="1" pageScale="1" pageWidth="827" pageHeight="1169" math="0" shadow="0">
      <root>
        <mxCell id="0" />
        <mxCell id="1" parent="0" />
        <mxCell id="TCAetXV_SJu_uKb2uuNq-1" value="Merkliste Toggle Anfrage" style="strokeWidth=2;html=1;shape=mxgraph.flowchart.start_1;whiteSpace=wrap;" parent="1" vertex="1">
          <mxGeometry x="960" y="70" width="100" height="60" as="geometry" />
        </mxCell>
        <mxCell id="TCAetXV_SJu_uKb2uuNq-3" value="Bereits in Datenbank?" style="rhombus;whiteSpace=wrap;html=1;" parent="1" vertex="1">
          <mxGeometry x="960" y="170" width="100" height="100" as="geometry" />
        </mxCell>
        <mxCell id="TCAetXV_SJu_uKb2uuNq-4" value="Stellenangebot&lt;div&gt;erzeugen&lt;/div&gt;" style="rounded=0;whiteSpace=wrap;html=1;" parent="1" vertex="1">
          <mxGeometry x="1140" y="190" width="120" height="60" as="geometry" />
        </mxCell>
        <mxCell id="TCAetXV_SJu_uKb2uuNq-5" value="" style="endArrow=classic;html=1;rounded=0;exitX=1;exitY=0.5;exitDx=0;exitDy=0;entryX=0;entryY=0.5;entryDx=0;entryDy=0;" parent="1" source="TCAetXV_SJu_uKb2uuNq-3" target="TCAetXV_SJu_uKb2uuNq-4" edge="1">
          <mxGeometry width="50" height="50" relative="1" as="geometry">
            <mxPoint x="1200" y="230" as="sourcePoint" />
            <mxPoint x="1300" y="70" as="targetPoint" />
          </mxGeometry>
        </mxCell>
        <mxCell id="TCAetXV_SJu_uKb2uuNq-6" value="" style="endArrow=classic;html=1;rounded=0;exitX=0.5;exitY=1;exitDx=0;exitDy=0;entryX=0.5;entryY=0;entryDx=0;entryDy=0;entryPerimeter=0;" parent="1" source="TCAetXV_SJu_uKb2uuNq-3" target="TCAetXV_SJu_uKb2uuNq-10" edge="1">
          <mxGeometry width="50" height="50" relative="1" as="geometry">
            <mxPoint x="1230" y="230" as="sourcePoint" />
            <mxPoint x="1010" y="340" as="targetPoint" />
          </mxGeometry>
        </mxCell>
        <mxCell id="TCAetXV_SJu_uKb2uuNq-7" value="" style="endArrow=classic;html=1;rounded=0;exitX=0.5;exitY=1;exitDx=0;exitDy=0;entryX=0.5;entryY=0;entryDx=0;entryDy=0;entryPerimeter=0;" parent="1" source="TCAetXV_SJu_uKb2uuNq-4" target="TCAetXV_SJu_uKb2uuNq-10" edge="1">
          <mxGeometry width="50" height="50" relative="1" as="geometry">
            <mxPoint x="1360" y="100" as="sourcePoint" />
            <mxPoint x="1010" y="340" as="targetPoint" />
            <Array as="points">
              <mxPoint x="1200" y="340" />
              <mxPoint x="1010" y="340" />
            </Array>
          </mxGeometry>
        </mxCell>
        <mxCell id="TCAetXV_SJu_uKb2uuNq-8" value="&lt;div&gt;&lt;br&gt;&lt;/div&gt;&amp;nbsp; nein&amp;nbsp;&amp;nbsp;&lt;div&gt;&lt;br&gt;&lt;/div&gt;" style="edgeLabel;html=1;align=center;verticalAlign=middle;resizable=0;points=[];spacingLeft=10;spacingRight=10;labelBorderColor=none;textShadow=0;" parent="1" vertex="1" connectable="0">
          <mxGeometry x="1100" y="190" as="geometry">
            <mxPoint x="-14" y="3" as="offset" />
          </mxGeometry>
        </mxCell>
        <mxCell id="TCAetXV_SJu_uKb2uuNq-9" value="&lt;div&gt;&lt;br&gt;&lt;/div&gt;&lt;div&gt;&amp;nbsp; ja&amp;nbsp;&amp;nbsp;&lt;/div&gt;&lt;div&gt;&amp;nbsp;&lt;/div&gt;" style="edgeLabel;html=1;align=center;verticalAlign=middle;resizable=0;points=[];textShadow=0;labelBorderColor=none;" parent="1" vertex="1" connectable="0">
          <mxGeometry x="1030" y="290" as="geometry" />
        </mxCell>
        <mxCell id="TCAetXV_SJu_uKb2uuNq-10" value="Ist bereits auf Merkliste?" style="strokeWidth=2;html=1;shape=mxgraph.flowchart.decision;whiteSpace=wrap;" parent="1" vertex="1">
          <mxGeometry x="960" y="370" width="100" height="100" as="geometry" />
        </mxCell>
        <mxCell id="TCAetXV_SJu_uKb2uuNq-11" value="" style="endArrow=classic;html=1;rounded=0;exitX=1;exitY=0.5;exitDx=0;exitDy=0;exitPerimeter=0;curved=0;entryX=0;entryY=0.5;entryDx=0;entryDy=0;" parent="1" source="TCAetXV_SJu_uKb2uuNq-10" target="TCAetXV_SJu_uKb2uuNq-18" edge="1">
          <mxGeometry width="50" height="50" relative="1" as="geometry">
            <mxPoint x="1400" y="260" as="sourcePoint" />
            <mxPoint x="1100" y="470" as="targetPoint" />
          </mxGeometry>
        </mxCell>
        <mxCell id="TCAetXV_SJu_uKb2uuNq-12" value="&lt;div&gt;&lt;br&gt;&lt;/div&gt;&lt;div&gt;&amp;nbsp; ja&amp;nbsp;&amp;nbsp;&lt;br&gt;&lt;/div&gt;&lt;div&gt;&lt;br&gt;&lt;/div&gt;" style="edgeLabel;html=1;align=center;verticalAlign=middle;resizable=0;points=[];" parent="TCAetXV_SJu_uKb2uuNq-11" vertex="1" connectable="0">
          <mxGeometry x="-0.0308" y="-2" relative="1" as="geometry">
            <mxPoint x="-9" y="-32" as="offset" />
          </mxGeometry>
        </mxCell>
        <mxCell id="TCAetXV_SJu_uKb2uuNq-13" value="" style="endArrow=classic;html=1;rounded=0;exitX=0.5;exitY=1;exitDx=0;exitDy=0;exitPerimeter=0;entryX=0.5;entryY=0;entryDx=0;entryDy=0;" parent="1" source="TCAetXV_SJu_uKb2uuNq-10" target="TCAetXV_SJu_uKb2uuNq-16" edge="1">
          <mxGeometry width="50" height="50" relative="1" as="geometry">
            <mxPoint x="1150" y="580" as="sourcePoint" />
            <mxPoint x="990" y="530" as="targetPoint" />
          </mxGeometry>
        </mxCell>
        <mxCell id="TCAetXV_SJu_uKb2uuNq-14" value="&lt;div&gt;&lt;br&gt;&lt;/div&gt;&amp;nbsp; nein&amp;nbsp;&amp;nbsp;&lt;div&gt;&lt;br&gt;&lt;/div&gt;" style="edgeLabel;html=1;align=center;verticalAlign=middle;resizable=0;points=[];spacingLeft=10;spacingRight=10;labelBorderColor=none;textShadow=0;" parent="TCAetXV_SJu_uKb2uuNq-13" vertex="1" connectable="0">
          <mxGeometry x="0.16" y="-2" relative="1" as="geometry">
            <mxPoint x="22" y="-16" as="offset" />
          </mxGeometry>
        </mxCell>
        <mxCell id="TCAetXV_SJu_uKb2uuNq-15" value="Fertig" style="strokeWidth=2;html=1;shape=mxgraph.flowchart.terminator;whiteSpace=wrap;" parent="1" vertex="1">
          <mxGeometry x="960" y="690" width="100" height="60" as="geometry" />
        </mxCell>
        <mxCell id="TCAetXV_SJu_uKb2uuNq-16" value="Zur Merkliste hinzufügen" style="rounded=0;whiteSpace=wrap;html=1;" parent="1" vertex="1">
          <mxGeometry x="950" y="550" width="120" height="60" as="geometry" />
        </mxCell>
        <mxCell id="TCAetXV_SJu_uKb2uuNq-17" value="" style="endArrow=classic;html=1;rounded=0;exitX=0.5;exitY=1;exitDx=0;exitDy=0;" parent="1" source="TCAetXV_SJu_uKb2uuNq-16" target="TCAetXV_SJu_uKb2uuNq-15" edge="1">
          <mxGeometry width="50" height="50" relative="1" as="geometry">
            <mxPoint x="1160" y="830" as="sourcePoint" />
            <mxPoint x="1210" y="780" as="targetPoint" />
          </mxGeometry>
        </mxCell>
        <mxCell id="TCAetXV_SJu_uKb2uuNq-18" value="Stellenangebot von Merkliste löschen" style="rounded=0;whiteSpace=wrap;html=1;" parent="1" vertex="1">
          <mxGeometry x="1140" y="390" width="120" height="60" as="geometry" />
        </mxCell>
        <mxCell id="TCAetXV_SJu_uKb2uuNq-19" value="Hat das&amp;nbsp;&lt;div&gt;Angebot zusätzliche Daten?&lt;/div&gt;" style="rhombus;whiteSpace=wrap;html=1;" parent="1" vertex="1">
          <mxGeometry x="1330" y="370" width="100" height="100" as="geometry" />
        </mxCell>
        <mxCell id="TCAetXV_SJu_uKb2uuNq-20" value="Stellenangebot in Papierkorb verschieben" style="rounded=0;whiteSpace=wrap;html=1;" parent="1" vertex="1">
          <mxGeometry x="1510" y="390" width="120" height="60" as="geometry" />
        </mxCell>
        <mxCell id="TCAetXV_SJu_uKb2uuNq-21" value="" style="endArrow=classic;html=1;rounded=0;exitX=0.5;exitY=1;exitDx=0;exitDy=0;entryX=0.5;entryY=0;entryDx=0;entryDy=0;" parent="1" source="TCAetXV_SJu_uKb2uuNq-19" target="TCAetXV_SJu_uKb2uuNq-22" edge="1">
          <mxGeometry width="50" height="50" relative="1" as="geometry">
            <mxPoint x="1450" y="560" as="sourcePoint" />
            <mxPoint x="1400" y="570" as="targetPoint" />
          </mxGeometry>
        </mxCell>
        <mxCell id="TCAetXV_SJu_uKb2uuNq-22" value="Stellenangebot löschen" style="rounded=0;whiteSpace=wrap;html=1;" parent="1" vertex="1">
          <mxGeometry x="1320" y="550" width="120" height="60" as="geometry" />
        </mxCell>
        <mxCell id="TCAetXV_SJu_uKb2uuNq-23" value="" style="endArrow=classic;html=1;rounded=0;exitX=1;exitY=0.5;exitDx=0;exitDy=0;entryX=0;entryY=0.5;entryDx=0;entryDy=0;" parent="1" source="TCAetXV_SJu_uKb2uuNq-18" target="TCAetXV_SJu_uKb2uuNq-19" edge="1">
          <mxGeometry width="50" height="50" relative="1" as="geometry">
            <mxPoint x="1310" y="500" as="sourcePoint" />
            <mxPoint x="1360" y="450" as="targetPoint" />
          </mxGeometry>
        </mxCell>
        <mxCell id="TCAetXV_SJu_uKb2uuNq-24" value="&lt;div&gt;&lt;br&gt;&lt;/div&gt;&lt;div&gt;&amp;nbsp; nein&amp;nbsp;&amp;nbsp;&lt;br&gt;&lt;/div&gt;&lt;div&gt;&lt;br&gt;&lt;/div&gt;" style="edgeLabel;html=1;align=center;verticalAlign=middle;resizable=0;points=[];spacingLeft=10;spacingRight=10;labelBorderColor=none;textShadow=0;" parent="1" vertex="1" connectable="0">
          <mxGeometry x="1360" y="490" as="geometry">
            <mxPoint x="41" y="-2" as="offset" />
          </mxGeometry>
        </mxCell>
        <mxCell id="TCAetXV_SJu_uKb2uuNq-25" value="" style="endArrow=classic;html=1;rounded=0;exitX=1;exitY=0.5;exitDx=0;exitDy=0;entryX=0;entryY=0.5;entryDx=0;entryDy=0;" parent="1" source="TCAetXV_SJu_uKb2uuNq-19" target="TCAetXV_SJu_uKb2uuNq-20" edge="1">
          <mxGeometry width="50" height="50" relative="1" as="geometry">
            <mxPoint x="1420" y="395" as="sourcePoint" />
            <mxPoint x="1510" y="395" as="targetPoint" />
          </mxGeometry>
        </mxCell>
        <mxCell id="TCAetXV_SJu_uKb2uuNq-26" value="&lt;div&gt;&lt;br&gt;&lt;/div&gt;&lt;div&gt;&amp;nbsp; ja&amp;nbsp;&amp;nbsp;&lt;br&gt;&lt;/div&gt;&lt;div&gt;&lt;br&gt;&lt;/div&gt;" style="edgeLabel;html=1;align=center;verticalAlign=middle;resizable=0;points=[];" parent="1" vertex="1" connectable="0">
          <mxGeometry x="1460" y="390" as="geometry" />
        </mxCell>
        <mxCell id="TCAetXV_SJu_uKb2uuNq-27" value="" style="endArrow=classic;html=1;rounded=0;exitX=0.5;exitY=1;exitDx=0;exitDy=0;entryX=1;entryY=0.5;entryDx=0;entryDy=0;entryPerimeter=0;" parent="1" source="TCAetXV_SJu_uKb2uuNq-22" target="TCAetXV_SJu_uKb2uuNq-15" edge="1">
          <mxGeometry width="50" height="50" relative="1" as="geometry">
            <mxPoint x="1380" y="760" as="sourcePoint" />
            <mxPoint x="1430" y="710" as="targetPoint" />
            <Array as="points">
              <mxPoint x="1380" y="720" />
            </Array>
          </mxGeometry>
        </mxCell>
        <mxCell id="TCAetXV_SJu_uKb2uuNq-28" value="" style="endArrow=classic;html=1;rounded=0;exitX=0.5;exitY=1;exitDx=0;exitDy=0;entryX=1;entryY=0.5;entryDx=0;entryDy=0;entryPerimeter=0;" parent="1" source="TCAetXV_SJu_uKb2uuNq-20" target="TCAetXV_SJu_uKb2uuNq-15" edge="1">
          <mxGeometry width="50" height="50" relative="1" as="geometry">
            <mxPoint x="1580" y="630" as="sourcePoint" />
            <mxPoint x="1630" y="580" as="targetPoint" />
            <Array as="points">
              <mxPoint x="1570" y="720" />
            </Array>
          </mxGeometry>
        </mxCell>
        <mxCell id="TCAetXV_SJu_uKb2uuNq-29" value="" style="endArrow=classic;html=1;rounded=0;exitX=0.5;exitY=1;exitDx=0;exitDy=0;exitPerimeter=0;" parent="1" source="TCAetXV_SJu_uKb2uuNq-1" target="TCAetXV_SJu_uKb2uuNq-3" edge="1">
          <mxGeometry width="50" height="50" relative="1" as="geometry">
            <mxPoint x="880" y="350" as="sourcePoint" />
            <mxPoint x="930" y="300" as="targetPoint" />
          </mxGeometry>
        </mxCell>
      </root>
    </mxGraphModel>
  </diagram>
</mxfile>
